M48
; DRILL file {KiCad 5.1.2-f72e74a~84~ubuntu16.04.1} date Mon 03 Jun 2019 23:18:08 BST
; FORMAT={-:-/ absolute / inch / decimal}
; #@! TF.CreationDate,2019-06-03T23:18:08+01:00
; #@! TF.GenerationSoftware,Kicad,Pcbnew,5.1.2-f72e74a~84~ubuntu16.04.1
FMAT,2
INCH
T1C0.0118
T2C0.0256
T3C0.0295
T4C0.0472
T5C0.0669
T6C0.1063
%
G90
G05
T1
X4.1654Y-2.6142
X4.1969Y-3.7087
X4.2441Y-2.5197
X4.4016Y-2.7953
X4.4567Y-3.0079
X4.4803Y-2.685
X4.5433Y-3.1654
X4.5433Y-3.3976
X4.5512Y-2.7559
X4.7559Y-2.874
X4.8189Y-3.2756
X4.8583Y-3.315
X4.8583Y-3.4488
X4.874Y-3.1811
X4.8819Y-3.1417
X4.8976Y-1.6535
X4.9134Y-3.1102
X4.9606Y-3.7402
X4.9606Y-3.7874
X4.9606Y-3.8346
X4.9606Y-3.8819
X4.9606Y-3.9291
X4.9685Y-3.1417
X4.9921Y-3.0709
X5.0157Y-3.1772
X5.0394Y-3.4567
X5.0394Y-3.5039
X5.0394Y-3.5512
X5.0394Y-3.5984
X5.0394Y-3.6457
X5.0866Y-3.3228
X5.1102Y-3.6693
X5.1102Y-3.8346
X5.126Y-3.3937
X5.1496Y-2.9921
X5.1732Y-3.378
X5.1969Y-2.937
X5.2047Y-2.4567
X5.2047Y-2.622
X5.2126Y-3.8346
X5.2677Y-2.622
X5.2677Y-2.8425
X5.2992Y-2.752
X5.2992Y-2.8819
X5.3071Y-2.5039
X5.315Y-2.622
X5.3465Y-2.2283
X5.3543Y-3.7402
X5.3543Y-3.7874
X5.3543Y-3.8346
X5.3543Y-3.8819
X5.3543Y-3.9291
X5.3622Y-3.2835
X5.3622Y-3.3701
X5.3701Y-3.4577
X5.3701Y-3.5039
X5.3701Y-3.5512
X5.3701Y-3.5984
X5.3701Y-3.6457
X5.3858Y-1.7559
X5.3937Y-2.4567
X5.3937Y-2.7008
X5.4094Y-2.9528
X5.4094Y-2.9921
X5.4252Y-2.6693
X5.4882Y-2.4252
X5.5197Y-3.0157
X5.5276Y-1.9843
X5.5433Y-2.9606
X5.5591Y-3.0709
X5.5984Y-3.0748
X5.6063Y-3.1693
X5.622Y-2.1496
X5.6299Y-2.9449
X5.6299Y-2.9055
X5.6535Y-2.748
X5.6614Y-1.6457
X5.6693Y-2.811
X5.685Y-2.5669
X5.685Y-2.6142
X5.7008Y-1.874
X5.7087Y-1.7402
X5.7087Y-1.7874
X5.7402Y-2.8661
X5.7795Y-3.315
X5.8031Y-3.4577
X5.8031Y-3.5039
X5.8031Y-3.5512
X5.8031Y-3.5984
X5.8031Y-3.6457
X5.8189Y-1.8976
X5.8583Y-1.7874
X5.8661Y-1.874
X5.8661Y-2.8268
X5.8898Y-2.0315
X5.9134Y-1.8941
X5.9134Y-2.9606
X5.9213Y-2.0
X5.9213Y-2.7402
X5.9291Y-2.6772
X5.9528Y-1.9055
X5.9803Y-2.5
X6.0Y-2.0157
X6.0079Y-2.4331
X6.0236Y-2.8583
X6.0709Y-2.9606
X6.0787Y-2.622
X6.0945Y-2.8268
X6.0945Y-2.9055
X6.1024Y-2.2283
X6.1181Y-2.874
X6.1575Y-3.4567
X6.1575Y-3.5039
X6.1575Y-3.5512
X6.1575Y-3.5984
X6.1575Y-3.6457
X6.1654Y-2.8431
X6.1969Y-3.0315
X6.2205Y-2.5591
X6.2441Y-2.874
X6.2756Y-2.9055
X6.2835Y-1.8189
X6.3337Y-3.2018
X6.3386Y-2.4409
X6.3386Y-2.6614
X6.3386Y-2.7844
X6.3701Y-2.811
X6.378Y-2.6299
X6.378Y-2.7638
X6.4016Y-2.3701
X6.4094Y-2.1339
X6.4094Y-2.8189
X6.4252Y-2.622
X6.4567Y-2.0079
X6.4567Y-2.0709
X6.4567Y-2.4173
X6.4844Y-2.2049
X6.5039Y-2.4488
X6.5118Y-2.6457
X6.5433Y-1.874
X6.5433Y-2.7559
X6.5669Y-2.4724
X6.5676Y-2.6384
X6.5906Y-2.3228
X6.622Y-2.9055
X6.6299Y-2.0315
X6.6378Y-2.4409
X6.6457Y-2.189
X6.6535Y-1.874
X6.6772Y-2.7244
X6.6929Y-2.5039
X6.7087Y-2.3858
X6.7244Y-2.685
X6.7638Y-2.7244
X6.7795Y-1.7402
X6.8031Y-2.748
X6.8583Y-2.4646
X6.8583Y-2.5118
X6.8819Y-2.8189
X6.9291Y-2.2992
T2
X7.1213Y-2.3732
X7.1213Y-2.5638
T3
X7.0394Y-2.1181
X7.0394Y-2.1969
X4.3228Y-2.9055
X4.3228Y-2.9843
X4.3228Y-3.063
X4.3228Y-3.1417
X7.0394Y-2.7402
X7.0394Y-2.8189
X7.0394Y-2.8976
X7.0394Y-2.9764
X7.0394Y-3.0551
X7.0394Y-3.1339
X7.0394Y-1.6772
X7.0394Y-1.7559
X7.0394Y-1.8346
X7.0394Y-1.9134
X4.3307Y-1.685
X4.3307Y-1.7638
X4.3307Y-1.8425
X4.3307Y-1.9213
X4.3307Y-2.0
X4.3307Y-2.0787
X4.3307Y-2.1575
T4
X7.2394Y-2.361
X7.2394Y-2.576
T5
X4.1338Y-3.4272
X4.1338Y-3.9587
X7.2283Y-3.4252
X7.2283Y-3.9567
T6
X4.37Y-3.5512
X4.37Y-3.8346
X6.9921Y-3.5492
X6.9921Y-3.8327
T0
M30
