G04 #@! TF.GenerationSoftware,KiCad,Pcbnew,5.1.2-f72e74a~84~ubuntu16.04.1*
G04 #@! TF.CreationDate,2019-06-08T12:34:56+01:00*
G04 #@! TF.ProjectId,bldc-BMS,626c6463-2d42-44d5-932e-6b696361645f,rev?*
G04 #@! TF.SameCoordinates,Original*
G04 #@! TF.FileFunction,Legend,Top*
G04 #@! TF.FilePolarity,Positive*
%FSLAX46Y46*%
G04 Gerber Fmt 4.6, Leading zero omitted, Abs format (unit mm)*
G04 Created by KiCad (PCBNEW 5.1.2-f72e74a~84~ubuntu16.04.1) date 2019-06-08 12:34:56*
%MOMM*%
%LPD*%
G04 APERTURE LIST*
%ADD10C,0.150000*%
%ADD11C,0.300000*%
%ADD12C,0.120000*%
G04 APERTURE END LIST*
D10*
X162147619Y-78947619D02*
X163147619Y-78947619D01*
X163147619Y-79185714D01*
X163100000Y-79328571D01*
X163004761Y-79423809D01*
X162909523Y-79471428D01*
X162719047Y-79519047D01*
X162576190Y-79519047D01*
X162385714Y-79471428D01*
X162290476Y-79423809D01*
X162195238Y-79328571D01*
X162147619Y-79185714D01*
X162147619Y-78947619D01*
X162147619Y-79947619D02*
X162814285Y-79947619D01*
X163147619Y-79947619D02*
X163100000Y-79900000D01*
X163052380Y-79947619D01*
X163100000Y-79995238D01*
X163147619Y-79947619D01*
X163052380Y-79947619D01*
X162195238Y-80376190D02*
X162147619Y-80471428D01*
X162147619Y-80661904D01*
X162195238Y-80757142D01*
X162290476Y-80804761D01*
X162338095Y-80804761D01*
X162433333Y-80757142D01*
X162480952Y-80661904D01*
X162480952Y-80519047D01*
X162528571Y-80423809D01*
X162623809Y-80376190D01*
X162671428Y-80376190D01*
X162766666Y-80423809D01*
X162814285Y-80519047D01*
X162814285Y-80661904D01*
X162766666Y-80757142D01*
X162814285Y-81233333D02*
X161814285Y-81233333D01*
X162766666Y-81233333D02*
X162814285Y-81328571D01*
X162814285Y-81519047D01*
X162766666Y-81614285D01*
X162719047Y-81661904D01*
X162623809Y-81709523D01*
X162338095Y-81709523D01*
X162242857Y-81661904D01*
X162195238Y-81614285D01*
X162147619Y-81519047D01*
X162147619Y-81328571D01*
X162195238Y-81233333D01*
X162147619Y-82280952D02*
X162195238Y-82185714D01*
X162290476Y-82138095D01*
X163147619Y-82138095D01*
X162147619Y-83090476D02*
X162671428Y-83090476D01*
X162766666Y-83042857D01*
X162814285Y-82947619D01*
X162814285Y-82757142D01*
X162766666Y-82661904D01*
X162195238Y-83090476D02*
X162147619Y-82995238D01*
X162147619Y-82757142D01*
X162195238Y-82661904D01*
X162290476Y-82614285D01*
X162385714Y-82614285D01*
X162480952Y-82661904D01*
X162528571Y-82757142D01*
X162528571Y-82995238D01*
X162576190Y-83090476D01*
X162814285Y-83471428D02*
X162147619Y-83709523D01*
X162814285Y-83947619D02*
X162147619Y-83709523D01*
X161909523Y-83614285D01*
X161861904Y-83566666D01*
X161814285Y-83471428D01*
D11*
X137752142Y-54528571D02*
X137752142Y-53028571D01*
X137752142Y-53600000D02*
X137895000Y-53528571D01*
X138180714Y-53528571D01*
X138323571Y-53600000D01*
X138395000Y-53671428D01*
X138466428Y-53814285D01*
X138466428Y-54242857D01*
X138395000Y-54385714D01*
X138323571Y-54457142D01*
X138180714Y-54528571D01*
X137895000Y-54528571D01*
X137752142Y-54457142D01*
X139323571Y-54528571D02*
X139180714Y-54457142D01*
X139109285Y-54314285D01*
X139109285Y-53028571D01*
X140537857Y-54528571D02*
X140537857Y-53028571D01*
X140537857Y-54457142D02*
X140395000Y-54528571D01*
X140109285Y-54528571D01*
X139966428Y-54457142D01*
X139895000Y-54385714D01*
X139823571Y-54242857D01*
X139823571Y-53814285D01*
X139895000Y-53671428D01*
X139966428Y-53600000D01*
X140109285Y-53528571D01*
X140395000Y-53528571D01*
X140537857Y-53600000D01*
X141895000Y-54457142D02*
X141752142Y-54528571D01*
X141466428Y-54528571D01*
X141323571Y-54457142D01*
X141252142Y-54385714D01*
X141180714Y-54242857D01*
X141180714Y-53814285D01*
X141252142Y-53671428D01*
X141323571Y-53600000D01*
X141466428Y-53528571D01*
X141752142Y-53528571D01*
X141895000Y-53600000D01*
X142537857Y-53957142D02*
X143680714Y-53957142D01*
X144395000Y-54528571D02*
X144395000Y-53028571D01*
X144395000Y-53600000D02*
X144537857Y-53528571D01*
X144823571Y-53528571D01*
X144966428Y-53600000D01*
X145037857Y-53671428D01*
X145109285Y-53814285D01*
X145109285Y-54242857D01*
X145037857Y-54385714D01*
X144966428Y-54457142D01*
X144823571Y-54528571D01*
X144537857Y-54528571D01*
X144395000Y-54457142D01*
X145752142Y-54528571D02*
X145752142Y-53528571D01*
X145752142Y-53671428D02*
X145823571Y-53600000D01*
X145966428Y-53528571D01*
X146180714Y-53528571D01*
X146323571Y-53600000D01*
X146395000Y-53742857D01*
X146395000Y-54528571D01*
X146395000Y-53742857D02*
X146466428Y-53600000D01*
X146609285Y-53528571D01*
X146823571Y-53528571D01*
X146966428Y-53600000D01*
X147037857Y-53742857D01*
X147037857Y-54528571D01*
X147680714Y-54457142D02*
X147823571Y-54528571D01*
X148109285Y-54528571D01*
X148252142Y-54457142D01*
X148323571Y-54314285D01*
X148323571Y-54242857D01*
X148252142Y-54100000D01*
X148109285Y-54028571D01*
X147895000Y-54028571D01*
X147752142Y-53957142D01*
X147680714Y-53814285D01*
X147680714Y-53742857D01*
X147752142Y-53600000D01*
X147895000Y-53528571D01*
X148109285Y-53528571D01*
X148252142Y-53600000D01*
X137680714Y-55721428D02*
X137752142Y-55650000D01*
X137895000Y-55578571D01*
X138252142Y-55578571D01*
X138395000Y-55650000D01*
X138466428Y-55721428D01*
X138537857Y-55864285D01*
X138537857Y-56007142D01*
X138466428Y-56221428D01*
X137609285Y-57078571D01*
X138537857Y-57078571D01*
X139466428Y-55578571D02*
X139609285Y-55578571D01*
X139752142Y-55650000D01*
X139823571Y-55721428D01*
X139895000Y-55864285D01*
X139966428Y-56150000D01*
X139966428Y-56507142D01*
X139895000Y-56792857D01*
X139823571Y-56935714D01*
X139752142Y-57007142D01*
X139609285Y-57078571D01*
X139466428Y-57078571D01*
X139323571Y-57007142D01*
X139252142Y-56935714D01*
X139180714Y-56792857D01*
X139109285Y-56507142D01*
X139109285Y-56150000D01*
X139180714Y-55864285D01*
X139252142Y-55721428D01*
X139323571Y-55650000D01*
X139466428Y-55578571D01*
X141395000Y-57078571D02*
X140537857Y-57078571D01*
X140966428Y-57078571D02*
X140966428Y-55578571D01*
X140823571Y-55792857D01*
X140680714Y-55935714D01*
X140537857Y-56007142D01*
X142109285Y-57078571D02*
X142395000Y-57078571D01*
X142537857Y-57007142D01*
X142609285Y-56935714D01*
X142752142Y-56721428D01*
X142823571Y-56435714D01*
X142823571Y-55864285D01*
X142752142Y-55721428D01*
X142680714Y-55650000D01*
X142537857Y-55578571D01*
X142252142Y-55578571D01*
X142109285Y-55650000D01*
X142037857Y-55721428D01*
X141966428Y-55864285D01*
X141966428Y-56221428D01*
X142037857Y-56364285D01*
X142109285Y-56435714D01*
X142252142Y-56507142D01*
X142537857Y-56507142D01*
X142680714Y-56435714D01*
X142752142Y-56364285D01*
X142823571Y-56221428D01*
X143466428Y-56507142D02*
X144609285Y-56507142D01*
X145609285Y-55578571D02*
X145752142Y-55578571D01*
X145895000Y-55650000D01*
X145966428Y-55721428D01*
X146037857Y-55864285D01*
X146109285Y-56150000D01*
X146109285Y-56507142D01*
X146037857Y-56792857D01*
X145966428Y-56935714D01*
X145895000Y-57007142D01*
X145752142Y-57078571D01*
X145609285Y-57078571D01*
X145466428Y-57007142D01*
X145395000Y-56935714D01*
X145323571Y-56792857D01*
X145252142Y-56507142D01*
X145252142Y-56150000D01*
X145323571Y-55864285D01*
X145395000Y-55721428D01*
X145466428Y-55650000D01*
X145609285Y-55578571D01*
X147395000Y-55578571D02*
X147109285Y-55578571D01*
X146966428Y-55650000D01*
X146895000Y-55721428D01*
X146752142Y-55935714D01*
X146680714Y-56221428D01*
X146680714Y-56792857D01*
X146752142Y-56935714D01*
X146823571Y-57007142D01*
X146966428Y-57078571D01*
X147252142Y-57078571D01*
X147395000Y-57007142D01*
X147466428Y-56935714D01*
X147537857Y-56792857D01*
X147537857Y-56435714D01*
X147466428Y-56292857D01*
X147395000Y-56221428D01*
X147252142Y-56150000D01*
X146966428Y-56150000D01*
X146823571Y-56221428D01*
X146752142Y-56292857D01*
X146680714Y-56435714D01*
X137752142Y-59628571D02*
X137752142Y-58128571D01*
X138252142Y-59200000D01*
X138752142Y-58128571D01*
X138752142Y-59628571D01*
X139466428Y-59628571D02*
X139466428Y-58128571D01*
X140037857Y-58128571D01*
X140180714Y-58200000D01*
X140252142Y-58271428D01*
X140323571Y-58414285D01*
X140323571Y-58628571D01*
X140252142Y-58771428D01*
X140180714Y-58842857D01*
X140037857Y-58914285D01*
X139466428Y-58914285D01*
X141609285Y-59628571D02*
X141609285Y-58842857D01*
X141537857Y-58700000D01*
X141395000Y-58628571D01*
X141109285Y-58628571D01*
X140966428Y-58700000D01*
X141609285Y-59557142D02*
X141466428Y-59628571D01*
X141109285Y-59628571D01*
X140966428Y-59557142D01*
X140895000Y-59414285D01*
X140895000Y-59271428D01*
X140966428Y-59128571D01*
X141109285Y-59057142D01*
X141466428Y-59057142D01*
X141609285Y-58985714D01*
X142109285Y-58628571D02*
X142680714Y-58628571D01*
X142323571Y-58128571D02*
X142323571Y-59414285D01*
X142395000Y-59557142D01*
X142537857Y-59628571D01*
X142680714Y-59628571D01*
X143752142Y-59557142D02*
X143609285Y-59628571D01*
X143323571Y-59628571D01*
X143180714Y-59557142D01*
X143109285Y-59414285D01*
X143109285Y-58842857D01*
X143180714Y-58700000D01*
X143323571Y-58628571D01*
X143609285Y-58628571D01*
X143752142Y-58700000D01*
X143823571Y-58842857D01*
X143823571Y-58985714D01*
X143109285Y-59128571D01*
X144466428Y-59628571D02*
X144466428Y-58628571D01*
X144466428Y-58914285D02*
X144537857Y-58771428D01*
X144609285Y-58700000D01*
X144752142Y-58628571D01*
X144895000Y-58628571D01*
X119392857Y-100292857D02*
X119607142Y-100364285D01*
X119678571Y-100435714D01*
X119750000Y-100578571D01*
X119750000Y-100792857D01*
X119678571Y-100935714D01*
X119607142Y-101007142D01*
X119464285Y-101078571D01*
X118892857Y-101078571D01*
X118892857Y-99578571D01*
X119392857Y-99578571D01*
X119535714Y-99650000D01*
X119607142Y-99721428D01*
X119678571Y-99864285D01*
X119678571Y-100007142D01*
X119607142Y-100150000D01*
X119535714Y-100221428D01*
X119392857Y-100292857D01*
X118892857Y-100292857D01*
X120321428Y-100650000D02*
X121035714Y-100650000D01*
X120178571Y-101078571D02*
X120678571Y-99578571D01*
X121178571Y-101078571D01*
X121464285Y-99578571D02*
X122321428Y-99578571D01*
X121892857Y-101078571D02*
X121892857Y-99578571D01*
X122607142Y-99578571D02*
X123464285Y-99578571D01*
X123035714Y-101078571D02*
X123035714Y-99578571D01*
X123964285Y-100507142D02*
X125107142Y-100507142D01*
X120592857Y-87692857D02*
X120807142Y-87764285D01*
X120878571Y-87835714D01*
X120950000Y-87978571D01*
X120950000Y-88192857D01*
X120878571Y-88335714D01*
X120807142Y-88407142D01*
X120664285Y-88478571D01*
X120092857Y-88478571D01*
X120092857Y-86978571D01*
X120592857Y-86978571D01*
X120735714Y-87050000D01*
X120807142Y-87121428D01*
X120878571Y-87264285D01*
X120878571Y-87407142D01*
X120807142Y-87550000D01*
X120735714Y-87621428D01*
X120592857Y-87692857D01*
X120092857Y-87692857D01*
X121521428Y-88050000D02*
X122235714Y-88050000D01*
X121378571Y-88478571D02*
X121878571Y-86978571D01*
X122378571Y-88478571D01*
X122664285Y-86978571D02*
X123521428Y-86978571D01*
X123092857Y-88478571D02*
X123092857Y-86978571D01*
X123807142Y-86978571D02*
X124664285Y-86978571D01*
X124235714Y-88478571D02*
X124235714Y-86978571D01*
X125164285Y-87907142D02*
X126307142Y-87907142D01*
X125735714Y-88478571D02*
X125735714Y-87335714D01*
X104707142Y-64921428D02*
X104635714Y-65135714D01*
X104564285Y-65207142D01*
X104421428Y-65278571D01*
X104207142Y-65278571D01*
X104064285Y-65207142D01*
X103992857Y-65135714D01*
X103921428Y-64992857D01*
X103921428Y-64421428D01*
X105421428Y-64421428D01*
X105421428Y-64921428D01*
X105350000Y-65064285D01*
X105278571Y-65135714D01*
X105135714Y-65207142D01*
X104992857Y-65207142D01*
X104850000Y-65135714D01*
X104778571Y-65064285D01*
X104707142Y-64921428D01*
X104707142Y-64421428D01*
X103921428Y-66135714D02*
X103992857Y-65992857D01*
X104064285Y-65921428D01*
X104207142Y-65850000D01*
X104635714Y-65850000D01*
X104778571Y-65921428D01*
X104850000Y-65992857D01*
X104921428Y-66135714D01*
X104921428Y-66350000D01*
X104850000Y-66492857D01*
X104778571Y-66564285D01*
X104635714Y-66635714D01*
X104207142Y-66635714D01*
X104064285Y-66564285D01*
X103992857Y-66492857D01*
X103921428Y-66350000D01*
X103921428Y-66135714D01*
X103921428Y-67492857D02*
X103992857Y-67350000D01*
X104064285Y-67278571D01*
X104207142Y-67207142D01*
X104635714Y-67207142D01*
X104778571Y-67278571D01*
X104850000Y-67350000D01*
X104921428Y-67492857D01*
X104921428Y-67707142D01*
X104850000Y-67850000D01*
X104778571Y-67921428D01*
X104635714Y-67992857D01*
X104207142Y-67992857D01*
X104064285Y-67921428D01*
X103992857Y-67850000D01*
X103921428Y-67707142D01*
X103921428Y-67492857D01*
X104921428Y-68421428D02*
X104921428Y-68992857D01*
X105421428Y-68635714D02*
X104135714Y-68635714D01*
X103992857Y-68707142D01*
X103921428Y-68850000D01*
X103921428Y-68992857D01*
X181085714Y-84078571D02*
X180371428Y-84078571D01*
X180371428Y-82578571D01*
X181871428Y-82578571D02*
X182157142Y-82578571D01*
X182300000Y-82650000D01*
X182442857Y-82792857D01*
X182514285Y-83078571D01*
X182514285Y-83578571D01*
X182442857Y-83864285D01*
X182300000Y-84007142D01*
X182157142Y-84078571D01*
X181871428Y-84078571D01*
X181728571Y-84007142D01*
X181585714Y-83864285D01*
X181514285Y-83578571D01*
X181514285Y-83078571D01*
X181585714Y-82792857D01*
X181728571Y-82650000D01*
X181871428Y-82578571D01*
X183085714Y-83650000D02*
X183800000Y-83650000D01*
X182942857Y-84078571D02*
X183442857Y-82578571D01*
X183942857Y-84078571D01*
X184442857Y-84078571D02*
X184442857Y-82578571D01*
X184800000Y-82578571D01*
X185014285Y-82650000D01*
X185157142Y-82792857D01*
X185228571Y-82935714D01*
X185300000Y-83221428D01*
X185300000Y-83435714D01*
X185228571Y-83721428D01*
X185157142Y-83864285D01*
X185014285Y-84007142D01*
X184800000Y-84078571D01*
X184442857Y-84078571D01*
X104050000Y-83492857D02*
X104264285Y-83564285D01*
X104335714Y-83635714D01*
X104407142Y-83778571D01*
X104407142Y-83992857D01*
X104335714Y-84135714D01*
X104264285Y-84207142D01*
X104121428Y-84278571D01*
X103550000Y-84278571D01*
X103550000Y-82778571D01*
X104050000Y-82778571D01*
X104192857Y-82850000D01*
X104264285Y-82921428D01*
X104335714Y-83064285D01*
X104335714Y-83207142D01*
X104264285Y-83350000D01*
X104192857Y-83421428D01*
X104050000Y-83492857D01*
X103550000Y-83492857D01*
X104978571Y-83850000D02*
X105692857Y-83850000D01*
X104835714Y-84278571D02*
X105335714Y-82778571D01*
X105835714Y-84278571D01*
X106121428Y-82778571D02*
X106978571Y-82778571D01*
X106550000Y-84278571D02*
X106550000Y-82778571D01*
X107264285Y-82778571D02*
X108121428Y-82778571D01*
X107692857Y-84278571D02*
X107692857Y-82778571D01*
X108621428Y-83492857D02*
X109121428Y-83492857D01*
X109335714Y-84278571D02*
X108621428Y-84278571D01*
X108621428Y-82778571D01*
X109335714Y-82778571D01*
X110835714Y-84278571D02*
X110335714Y-83564285D01*
X109978571Y-84278571D02*
X109978571Y-82778571D01*
X110550000Y-82778571D01*
X110692857Y-82850000D01*
X110764285Y-82921428D01*
X110835714Y-83064285D01*
X110835714Y-83278571D01*
X110764285Y-83421428D01*
X110692857Y-83492857D01*
X110550000Y-83564285D01*
X109978571Y-83564285D01*
X111764285Y-83564285D02*
X111764285Y-84278571D01*
X111264285Y-82778571D02*
X111764285Y-83564285D01*
X112264285Y-82778571D01*
X113292857Y-40678571D02*
X113292857Y-41821428D01*
X112721428Y-41250000D02*
X113864285Y-41250000D01*
X114221428Y-42321428D02*
X112721428Y-42821428D01*
X114221428Y-43321428D01*
X113507142Y-45464285D02*
X113435714Y-45678571D01*
X113364285Y-45750000D01*
X113221428Y-45821428D01*
X113007142Y-45821428D01*
X112864285Y-45750000D01*
X112792857Y-45678571D01*
X112721428Y-45535714D01*
X112721428Y-44964285D01*
X114221428Y-44964285D01*
X114221428Y-45464285D01*
X114150000Y-45607142D01*
X114078571Y-45678571D01*
X113935714Y-45750000D01*
X113792857Y-45750000D01*
X113650000Y-45678571D01*
X113578571Y-45607142D01*
X113507142Y-45464285D01*
X113507142Y-44964285D01*
X113150000Y-46392857D02*
X113150000Y-47107142D01*
X112721428Y-46250000D02*
X114221428Y-46750000D01*
X112721428Y-47250000D01*
X114221428Y-47535714D02*
X114221428Y-48392857D01*
X112721428Y-47964285D02*
X114221428Y-47964285D01*
X114221428Y-48678571D02*
X114221428Y-49535714D01*
X112721428Y-49107142D02*
X114221428Y-49107142D01*
X113507142Y-50035714D02*
X113507142Y-50535714D01*
X112721428Y-50750000D02*
X112721428Y-50035714D01*
X114221428Y-50035714D01*
X114221428Y-50750000D01*
X112721428Y-52250000D02*
X113435714Y-51750000D01*
X112721428Y-51392857D02*
X114221428Y-51392857D01*
X114221428Y-51964285D01*
X114150000Y-52107142D01*
X114078571Y-52178571D01*
X113935714Y-52250000D01*
X113721428Y-52250000D01*
X113578571Y-52178571D01*
X113507142Y-52107142D01*
X113435714Y-51964285D01*
X113435714Y-51392857D01*
X113435714Y-53178571D02*
X112721428Y-53178571D01*
X114221428Y-52678571D02*
X113435714Y-53178571D01*
X114221428Y-53678571D01*
X114221428Y-55607142D02*
X114221428Y-55750000D01*
X114150000Y-55892857D01*
X114078571Y-55964285D01*
X113935714Y-56035714D01*
X113650000Y-56107142D01*
X113292857Y-56107142D01*
X113007142Y-56035714D01*
X112864285Y-55964285D01*
X112792857Y-55892857D01*
X112721428Y-55750000D01*
X112721428Y-55607142D01*
X112792857Y-55464285D01*
X112864285Y-55392857D01*
X113007142Y-55321428D01*
X113292857Y-55250000D01*
X113650000Y-55250000D01*
X113935714Y-55321428D01*
X114078571Y-55392857D01*
X114150000Y-55464285D01*
X114221428Y-55607142D01*
X114221428Y-56535714D02*
X112721428Y-57035714D01*
X114221428Y-57535714D01*
D12*
X145925000Y-41175000D02*
X141275000Y-41175000D01*
X147000000Y-49225000D02*
X141275000Y-49225000D01*
X145925000Y-41175000D02*
X145925000Y-41282500D01*
X141275000Y-41175000D02*
X141275000Y-41282500D01*
X141275000Y-49225000D02*
X141275000Y-49117500D01*
X155237221Y-69890000D02*
X155562779Y-69890000D01*
X155237221Y-70910000D02*
X155562779Y-70910000D01*
X155562779Y-63110000D02*
X155237221Y-63110000D01*
X155562779Y-62090000D02*
X155237221Y-62090000D01*
X158390000Y-49500000D02*
X158390000Y-43490000D01*
X165210000Y-47250000D02*
X165210000Y-43490000D01*
X158390000Y-43490000D02*
X159650000Y-43490000D01*
X165210000Y-43490000D02*
X163950000Y-43490000D01*
D10*
X174600000Y-99750000D02*
X174600000Y-87750000D01*
X174600000Y-87750000D02*
X178700000Y-84650000D01*
X178700000Y-84650000D02*
X185600000Y-84650000D01*
X174600000Y-99750000D02*
X178600000Y-102750000D01*
X178600000Y-102750000D02*
X185600000Y-102750000D01*
X113998000Y-87800000D02*
X113998000Y-99800000D01*
X113998000Y-99800000D02*
X109898000Y-102900000D01*
X109898000Y-102900000D02*
X102998000Y-102900000D01*
X113998000Y-87800000D02*
X109998000Y-84800000D01*
X109998000Y-84800000D02*
X102998000Y-84800000D01*
D12*
X167990000Y-41900000D02*
X167990000Y-43700000D01*
X171210000Y-43700000D02*
X171210000Y-41250000D01*
X167962779Y-46310000D02*
X167637221Y-46310000D01*
X167962779Y-45290000D02*
X167637221Y-45290000D01*
X128700000Y-87400000D02*
X128700000Y-87800000D01*
X135300000Y-87400000D02*
X128700000Y-87400000D01*
X134900000Y-93000000D02*
X129700000Y-93000000D01*
X135450000Y-62100000D02*
X133750000Y-62100000D01*
X133750000Y-62100000D02*
X133750000Y-64650000D01*
X135450000Y-62100000D02*
X135450000Y-64650000D01*
X173950000Y-41800000D02*
G75*
G03X173950000Y-41800000I-950000J0D01*
G01*
X157750000Y-59800000D02*
G75*
G03X157750000Y-59800000I-950000J0D01*
G01*
X163150000Y-88600000D02*
G75*
G03X163150000Y-88600000I-950000J0D01*
G01*
X125150000Y-90400000D02*
G75*
G03X125150000Y-90400000I-950000J0D01*
G01*
X172750000Y-72600000D02*
G75*
G03X172750000Y-72600000I-950000J0D01*
G01*
X154550000Y-55000000D02*
G75*
G03X154550000Y-55000000I-950000J0D01*
G01*
X121350000Y-41400000D02*
G75*
G03X121350000Y-41400000I-950000J0D01*
G01*
X172750000Y-75200000D02*
G75*
G03X172750000Y-75200000I-950000J0D01*
G01*
X159150000Y-55000000D02*
G75*
G03X159150000Y-55000000I-950000J0D01*
G01*
X157510000Y-51837221D02*
X157510000Y-52162779D01*
X156490000Y-51837221D02*
X156490000Y-52162779D01*
X155910000Y-51837221D02*
X155910000Y-52162779D01*
X154890000Y-51837221D02*
X154890000Y-52162779D01*
X178940000Y-56660000D02*
X178940000Y-56940000D01*
X178940000Y-56940000D02*
X177340000Y-56940000D01*
X177340000Y-56940000D02*
X177340000Y-57860000D01*
X177340000Y-57860000D02*
X185160000Y-57860000D01*
X185160000Y-57860000D02*
X185160000Y-51740000D01*
X185160000Y-51740000D02*
X177340000Y-51740000D01*
X177340000Y-51740000D02*
X177340000Y-52660000D01*
X177340000Y-52660000D02*
X178940000Y-52660000D01*
X178940000Y-52660000D02*
X178940000Y-52940000D01*
X185160000Y-55300000D02*
X180800000Y-55300000D01*
X180800000Y-55300000D02*
X180800000Y-54300000D01*
X180800000Y-54300000D02*
X185160000Y-54300000D01*
X178940000Y-57860000D02*
X178940000Y-56940000D01*
X178940000Y-51740000D02*
X178940000Y-52660000D01*
X181300000Y-57100000D02*
X182900000Y-57100000D01*
X182900000Y-57100000D02*
X182900000Y-56100000D01*
X182900000Y-56100000D02*
X181300000Y-56100000D01*
X181300000Y-56100000D02*
X181300000Y-57100000D01*
X181300000Y-52500000D02*
X182900000Y-52500000D01*
X182900000Y-52500000D02*
X182900000Y-53500000D01*
X182900000Y-53500000D02*
X181300000Y-53500000D01*
X181300000Y-53500000D02*
X181300000Y-52500000D01*
X182900000Y-56100000D02*
X185160000Y-56100000D01*
X182900000Y-56600000D02*
X185160000Y-56600000D01*
X178940000Y-56660000D02*
X177725000Y-56660000D01*
X178940000Y-80460000D02*
X178940000Y-80740000D01*
X178940000Y-80740000D02*
X177340000Y-80740000D01*
X177340000Y-80740000D02*
X177340000Y-81660000D01*
X177340000Y-81660000D02*
X185160000Y-81660000D01*
X185160000Y-81660000D02*
X185160000Y-67540000D01*
X185160000Y-67540000D02*
X177340000Y-67540000D01*
X177340000Y-67540000D02*
X177340000Y-68460000D01*
X177340000Y-68460000D02*
X178940000Y-68460000D01*
X178940000Y-68460000D02*
X178940000Y-68740000D01*
X185160000Y-79100000D02*
X180800000Y-79100000D01*
X180800000Y-79100000D02*
X180800000Y-70100000D01*
X180800000Y-70100000D02*
X185160000Y-70100000D01*
X178940000Y-81660000D02*
X178940000Y-80740000D01*
X178940000Y-67540000D02*
X178940000Y-68460000D01*
X181300000Y-80900000D02*
X182900000Y-80900000D01*
X182900000Y-80900000D02*
X182900000Y-79900000D01*
X182900000Y-79900000D02*
X181300000Y-79900000D01*
X181300000Y-79900000D02*
X181300000Y-80900000D01*
X181300000Y-68300000D02*
X182900000Y-68300000D01*
X182900000Y-68300000D02*
X182900000Y-69300000D01*
X182900000Y-69300000D02*
X181300000Y-69300000D01*
X181300000Y-69300000D02*
X181300000Y-68300000D01*
X182900000Y-79900000D02*
X185160000Y-79900000D01*
X182900000Y-80400000D02*
X185160000Y-80400000D01*
X178940000Y-80460000D02*
X177725000Y-80460000D01*
X109660000Y-72940000D02*
X109660000Y-72660000D01*
X109660000Y-72660000D02*
X111260000Y-72660000D01*
X111260000Y-72660000D02*
X111260000Y-71740000D01*
X111260000Y-71740000D02*
X103440000Y-71740000D01*
X103440000Y-71740000D02*
X103440000Y-81860000D01*
X103440000Y-81860000D02*
X111260000Y-81860000D01*
X111260000Y-81860000D02*
X111260000Y-80940000D01*
X111260000Y-80940000D02*
X109660000Y-80940000D01*
X109660000Y-80940000D02*
X109660000Y-80660000D01*
X103440000Y-74300000D02*
X107800000Y-74300000D01*
X107800000Y-74300000D02*
X107800000Y-79300000D01*
X107800000Y-79300000D02*
X103440000Y-79300000D01*
X109660000Y-71740000D02*
X109660000Y-72660000D01*
X109660000Y-81860000D02*
X109660000Y-80940000D01*
X107300000Y-72500000D02*
X105700000Y-72500000D01*
X105700000Y-72500000D02*
X105700000Y-73500000D01*
X105700000Y-73500000D02*
X107300000Y-73500000D01*
X107300000Y-73500000D02*
X107300000Y-72500000D01*
X107300000Y-81100000D02*
X105700000Y-81100000D01*
X105700000Y-81100000D02*
X105700000Y-80100000D01*
X105700000Y-80100000D02*
X107300000Y-80100000D01*
X107300000Y-80100000D02*
X107300000Y-81100000D01*
X105700000Y-73500000D02*
X103440000Y-73500000D01*
X105700000Y-73000000D02*
X103440000Y-73000000D01*
X109660000Y-72940000D02*
X110875000Y-72940000D01*
X109860000Y-41940000D02*
X109860000Y-41660000D01*
X109860000Y-41660000D02*
X111460000Y-41660000D01*
X111460000Y-41660000D02*
X111460000Y-40740000D01*
X111460000Y-40740000D02*
X103640000Y-40740000D01*
X103640000Y-40740000D02*
X103640000Y-56860000D01*
X103640000Y-56860000D02*
X111460000Y-56860000D01*
X111460000Y-56860000D02*
X111460000Y-55940000D01*
X111460000Y-55940000D02*
X109860000Y-55940000D01*
X109860000Y-55940000D02*
X109860000Y-55660000D01*
X103640000Y-43300000D02*
X108000000Y-43300000D01*
X108000000Y-43300000D02*
X108000000Y-54300000D01*
X108000000Y-54300000D02*
X103640000Y-54300000D01*
X109860000Y-40740000D02*
X109860000Y-41660000D01*
X109860000Y-56860000D02*
X109860000Y-55940000D01*
X107500000Y-41500000D02*
X105900000Y-41500000D01*
X105900000Y-41500000D02*
X105900000Y-42500000D01*
X105900000Y-42500000D02*
X107500000Y-42500000D01*
X107500000Y-42500000D02*
X107500000Y-41500000D01*
X107500000Y-56100000D02*
X105900000Y-56100000D01*
X105900000Y-56100000D02*
X105900000Y-55100000D01*
X105900000Y-55100000D02*
X107500000Y-55100000D01*
X107500000Y-55100000D02*
X107500000Y-56100000D01*
X105900000Y-42500000D02*
X103640000Y-42500000D01*
X105900000Y-42000000D02*
X103640000Y-42000000D01*
X109860000Y-41940000D02*
X111075000Y-41940000D01*
X178940000Y-49460000D02*
X178940000Y-49740000D01*
X178940000Y-49740000D02*
X177340000Y-49740000D01*
X177340000Y-49740000D02*
X177340000Y-50660000D01*
X177340000Y-50660000D02*
X185160000Y-50660000D01*
X185160000Y-50660000D02*
X185160000Y-40540000D01*
X185160000Y-40540000D02*
X177340000Y-40540000D01*
X177340000Y-40540000D02*
X177340000Y-41460000D01*
X177340000Y-41460000D02*
X178940000Y-41460000D01*
X178940000Y-41460000D02*
X178940000Y-41740000D01*
X185160000Y-48100000D02*
X180800000Y-48100000D01*
X180800000Y-48100000D02*
X180800000Y-43100000D01*
X180800000Y-43100000D02*
X185160000Y-43100000D01*
X178940000Y-50660000D02*
X178940000Y-49740000D01*
X178940000Y-40540000D02*
X178940000Y-41460000D01*
X181300000Y-49900000D02*
X182900000Y-49900000D01*
X182900000Y-49900000D02*
X182900000Y-48900000D01*
X182900000Y-48900000D02*
X181300000Y-48900000D01*
X181300000Y-48900000D02*
X181300000Y-49900000D01*
X181300000Y-41300000D02*
X182900000Y-41300000D01*
X182900000Y-41300000D02*
X182900000Y-42300000D01*
X182900000Y-42300000D02*
X181300000Y-42300000D01*
X181300000Y-42300000D02*
X181300000Y-41300000D01*
X182900000Y-48900000D02*
X185160000Y-48900000D01*
X182900000Y-49400000D02*
X185160000Y-49400000D01*
X178940000Y-49460000D02*
X177725000Y-49460000D01*
X140110000Y-86997936D02*
X140110000Y-88202064D01*
X138290000Y-86997936D02*
X138290000Y-88202064D01*
X142510000Y-86997936D02*
X142510000Y-88202064D01*
X140690000Y-86997936D02*
X140690000Y-88202064D01*
X144910000Y-86997936D02*
X144910000Y-88202064D01*
X143090000Y-86997936D02*
X143090000Y-88202064D01*
X182700000Y-66850000D02*
X181150000Y-66850000D01*
X182700000Y-66850000D02*
X182700000Y-66550000D01*
X185500000Y-66550000D02*
X182700000Y-66550000D01*
X182700000Y-58550000D02*
X181150000Y-58550000D01*
X182700000Y-58850000D02*
X182700000Y-58550000D01*
X185500000Y-58850000D02*
X182700000Y-58850000D01*
X179450000Y-63600000D02*
X179900000Y-64000000D01*
X179450000Y-64400000D02*
X179450000Y-63600000D01*
X179900000Y-64000000D02*
X179450000Y-64400000D01*
X155562779Y-79310000D02*
X155237221Y-79310000D01*
X155562779Y-78290000D02*
X155237221Y-78290000D01*
X114890000Y-82837221D02*
X114890000Y-83162779D01*
X115910000Y-82837221D02*
X115910000Y-83162779D01*
X130090000Y-78162779D02*
X130090000Y-77837221D01*
X131110000Y-78162779D02*
X131110000Y-77837221D01*
X118162779Y-80090000D02*
X117837221Y-80090000D01*
X118162779Y-81110000D02*
X117837221Y-81110000D01*
X121110000Y-82837221D02*
X121110000Y-83162779D01*
X120090000Y-82837221D02*
X120090000Y-83162779D01*
X145910000Y-83237221D02*
X145910000Y-83562779D01*
X144890000Y-83237221D02*
X144890000Y-83562779D01*
X140162779Y-94410000D02*
X139837221Y-94410000D01*
X140162779Y-93390000D02*
X139837221Y-93390000D01*
X143362779Y-93390000D02*
X143037221Y-93390000D01*
X143362779Y-94410000D02*
X143037221Y-94410000D01*
X159890000Y-92037221D02*
X159890000Y-92362779D01*
X160910000Y-92037221D02*
X160910000Y-92362779D01*
X160910000Y-95237221D02*
X160910000Y-95562779D01*
X159890000Y-95237221D02*
X159890000Y-95562779D01*
X129837221Y-41910000D02*
X130162779Y-41910000D01*
X129837221Y-40890000D02*
X130162779Y-40890000D01*
X133010000Y-46237221D02*
X133010000Y-46562779D01*
X131990000Y-46237221D02*
X131990000Y-46562779D01*
X131990000Y-49237221D02*
X131990000Y-49562779D01*
X133010000Y-49237221D02*
X133010000Y-49562779D01*
X133662779Y-56910000D02*
X133337221Y-56910000D01*
X133662779Y-55890000D02*
X133337221Y-55890000D01*
X133010000Y-60562779D02*
X133010000Y-60237221D01*
X131990000Y-60562779D02*
X131990000Y-60237221D01*
X133337221Y-57390000D02*
X133662779Y-57390000D01*
X133337221Y-58410000D02*
X133662779Y-58410000D01*
X134510000Y-50737221D02*
X134510000Y-51062779D01*
X133490000Y-50737221D02*
X133490000Y-51062779D01*
X132090000Y-64237221D02*
X132090000Y-64562779D01*
X133110000Y-64237221D02*
X133110000Y-64562779D01*
X149090000Y-43037221D02*
X149090000Y-43362779D01*
X150110000Y-43037221D02*
X150110000Y-43362779D01*
X113710000Y-74437221D02*
X113710000Y-74762779D01*
X112690000Y-74437221D02*
X112690000Y-74762779D01*
X113710000Y-78437221D02*
X113710000Y-78762779D01*
X112690000Y-78437221D02*
X112690000Y-78762779D01*
X151710000Y-46237221D02*
X151710000Y-46562779D01*
X150690000Y-46237221D02*
X150690000Y-46562779D01*
X148037221Y-74910000D02*
X148362779Y-74910000D01*
X148037221Y-73890000D02*
X148362779Y-73890000D01*
X149510000Y-68741422D02*
X149510000Y-69258578D01*
X148090000Y-68741422D02*
X148090000Y-69258578D01*
X151290000Y-65762779D02*
X151290000Y-65437221D01*
X152310000Y-65762779D02*
X152310000Y-65437221D01*
X148037221Y-73310000D02*
X148362779Y-73310000D01*
X148037221Y-72290000D02*
X148362779Y-72290000D01*
X171237221Y-45290000D02*
X171562779Y-45290000D01*
X171237221Y-46310000D02*
X171562779Y-46310000D01*
X167110000Y-42437221D02*
X167110000Y-42762779D01*
X166090000Y-42437221D02*
X166090000Y-42762779D01*
X171597936Y-48710000D02*
X172802064Y-48710000D01*
X171597936Y-46890000D02*
X172802064Y-46890000D01*
X168237221Y-75290000D02*
X168562779Y-75290000D01*
X168237221Y-76310000D02*
X168562779Y-76310000D01*
X158490000Y-62562779D02*
X158490000Y-62237221D01*
X159510000Y-62562779D02*
X159510000Y-62237221D01*
X170290000Y-65562779D02*
X170290000Y-65237221D01*
X171310000Y-65562779D02*
X171310000Y-65237221D01*
X121850000Y-89200000D02*
X121850000Y-97600000D01*
X115350000Y-89200000D02*
X115350000Y-97600000D01*
X115350000Y-89200000D02*
X121850000Y-89200000D01*
X163935000Y-97060000D02*
X163935000Y-94600000D01*
X162465000Y-97060000D02*
X163935000Y-97060000D01*
X162465000Y-94600000D02*
X162465000Y-97060000D01*
X152800000Y-83465000D02*
X150340000Y-83465000D01*
X150340000Y-83465000D02*
X150340000Y-84935000D01*
X150340000Y-84935000D02*
X152800000Y-84935000D01*
X150340000Y-83135000D02*
X152800000Y-83135000D01*
X150340000Y-81665000D02*
X150340000Y-83135000D01*
X152800000Y-81665000D02*
X150340000Y-81665000D01*
X152800000Y-79865000D02*
X150340000Y-79865000D01*
X150340000Y-79865000D02*
X150340000Y-81335000D01*
X150340000Y-81335000D02*
X152800000Y-81335000D01*
X150340000Y-79535000D02*
X152800000Y-79535000D01*
X150340000Y-78065000D02*
X150340000Y-79535000D01*
X152800000Y-78065000D02*
X150340000Y-78065000D01*
X152800000Y-76265000D02*
X150340000Y-76265000D01*
X150340000Y-76265000D02*
X150340000Y-77735000D01*
X150340000Y-77735000D02*
X152800000Y-77735000D01*
X174741422Y-45310000D02*
X175258578Y-45310000D01*
X174741422Y-43890000D02*
X175258578Y-43890000D01*
X125110000Y-83237221D02*
X125110000Y-83562779D01*
X124090000Y-83237221D02*
X124090000Y-83562779D01*
X117510000Y-82837221D02*
X117510000Y-83162779D01*
X116490000Y-82837221D02*
X116490000Y-83162779D01*
X119310000Y-82837221D02*
X119310000Y-83162779D01*
X118290000Y-82837221D02*
X118290000Y-83162779D01*
X125690000Y-83237221D02*
X125690000Y-83562779D01*
X126710000Y-83237221D02*
X126710000Y-83562779D01*
X127290000Y-83237221D02*
X127290000Y-83562779D01*
X128310000Y-83237221D02*
X128310000Y-83562779D01*
X130490000Y-83237221D02*
X130490000Y-83562779D01*
X131510000Y-83237221D02*
X131510000Y-83562779D01*
X133110000Y-83237221D02*
X133110000Y-83562779D01*
X132090000Y-83237221D02*
X132090000Y-83562779D01*
X163710000Y-91837221D02*
X163710000Y-92162779D01*
X162690000Y-91837221D02*
X162690000Y-92162779D01*
X121437221Y-79090000D02*
X121762779Y-79090000D01*
X121437221Y-80110000D02*
X121762779Y-80110000D01*
X143290000Y-83237221D02*
X143290000Y-83562779D01*
X144310000Y-83237221D02*
X144310000Y-83562779D01*
X126662779Y-40890000D02*
X126337221Y-40890000D01*
X126662779Y-41910000D02*
X126337221Y-41910000D01*
X130162779Y-44890000D02*
X129837221Y-44890000D01*
X130162779Y-45910000D02*
X129837221Y-45910000D01*
X130162779Y-48890000D02*
X129837221Y-48890000D01*
X130162779Y-49910000D02*
X129837221Y-49910000D01*
X131990000Y-52237221D02*
X131990000Y-52562779D01*
X133010000Y-52237221D02*
X133010000Y-52562779D01*
X133662779Y-54390000D02*
X133337221Y-54390000D01*
X133662779Y-55410000D02*
X133337221Y-55410000D01*
X130162779Y-56890000D02*
X129837221Y-56890000D01*
X130162779Y-57910000D02*
X129837221Y-57910000D01*
X130162779Y-61910000D02*
X129837221Y-61910000D01*
X130162779Y-60890000D02*
X129837221Y-60890000D01*
X130162779Y-64890000D02*
X129837221Y-64890000D01*
X130162779Y-65910000D02*
X129837221Y-65910000D01*
X130162779Y-52890000D02*
X129837221Y-52890000D01*
X130162779Y-53910000D02*
X129837221Y-53910000D01*
X129837221Y-42890000D02*
X130162779Y-42890000D01*
X129837221Y-43910000D02*
X130162779Y-43910000D01*
X130162779Y-46890000D02*
X129837221Y-46890000D01*
X130162779Y-47910000D02*
X129837221Y-47910000D01*
X130162779Y-51910000D02*
X129837221Y-51910000D01*
X130162779Y-50890000D02*
X129837221Y-50890000D01*
X130162779Y-55910000D02*
X129837221Y-55910000D01*
X130162779Y-54890000D02*
X129837221Y-54890000D01*
X130162779Y-58890000D02*
X129837221Y-58890000D01*
X130162779Y-59910000D02*
X129837221Y-59910000D01*
X130162779Y-63910000D02*
X129837221Y-63910000D01*
X130162779Y-62890000D02*
X129837221Y-62890000D01*
X109310000Y-66037221D02*
X109310000Y-66362779D01*
X108290000Y-66037221D02*
X108290000Y-66362779D01*
X109310000Y-59962779D02*
X109310000Y-59637221D01*
X108290000Y-59962779D02*
X108290000Y-59637221D01*
X108290000Y-63162779D02*
X108290000Y-62837221D01*
X109310000Y-63162779D02*
X109310000Y-62837221D01*
X152162779Y-41890000D02*
X151837221Y-41890000D01*
X152162779Y-42910000D02*
X151837221Y-42910000D01*
X152162779Y-43490000D02*
X151837221Y-43490000D01*
X152162779Y-44510000D02*
X151837221Y-44510000D01*
X153310000Y-46237221D02*
X153310000Y-46562779D01*
X152290000Y-46237221D02*
X152290000Y-46562779D01*
X155237221Y-43490000D02*
X155562779Y-43490000D01*
X155237221Y-44510000D02*
X155562779Y-44510000D01*
X149110000Y-65437221D02*
X149110000Y-65762779D01*
X148090000Y-65437221D02*
X148090000Y-65762779D01*
X150710000Y-65762779D02*
X150710000Y-65437221D01*
X149690000Y-65762779D02*
X149690000Y-65437221D01*
X146290000Y-61637221D02*
X146290000Y-61962779D01*
X147310000Y-61637221D02*
X147310000Y-61962779D01*
X146290000Y-65437221D02*
X146290000Y-65762779D01*
X147310000Y-65437221D02*
X147310000Y-65762779D01*
X152310000Y-68637221D02*
X152310000Y-68962779D01*
X151290000Y-68637221D02*
X151290000Y-68962779D01*
X148037221Y-75490000D02*
X148362779Y-75490000D01*
X148037221Y-76510000D02*
X148362779Y-76510000D01*
X155562779Y-84710000D02*
X155237221Y-84710000D01*
X155562779Y-83690000D02*
X155237221Y-83690000D01*
X155562779Y-82910000D02*
X155237221Y-82910000D01*
X155562779Y-81890000D02*
X155237221Y-81890000D01*
X155562779Y-81110000D02*
X155237221Y-81110000D01*
X155562779Y-80090000D02*
X155237221Y-80090000D01*
X155562779Y-76490000D02*
X155237221Y-76490000D01*
X155562779Y-77510000D02*
X155237221Y-77510000D01*
X153510000Y-74562779D02*
X153510000Y-74237221D01*
X152490000Y-74562779D02*
X152490000Y-74237221D01*
X150890000Y-74562779D02*
X150890000Y-74237221D01*
X151910000Y-74562779D02*
X151910000Y-74237221D01*
X159762779Y-77510000D02*
X159437221Y-77510000D01*
X159762779Y-76490000D02*
X159437221Y-76490000D01*
X165162779Y-82110000D02*
X164837221Y-82110000D01*
X165162779Y-81090000D02*
X164837221Y-81090000D01*
X165162779Y-82890000D02*
X164837221Y-82890000D01*
X165162779Y-83910000D02*
X164837221Y-83910000D01*
X165162779Y-80310000D02*
X164837221Y-80310000D01*
X165162779Y-79290000D02*
X164837221Y-79290000D01*
X176237221Y-60490000D02*
X176562779Y-60490000D01*
X176237221Y-61510000D02*
X176562779Y-61510000D01*
X176237221Y-62090000D02*
X176562779Y-62090000D01*
X176237221Y-63110000D02*
X176562779Y-63110000D01*
X174562779Y-52290000D02*
X174237221Y-52290000D01*
X174562779Y-53310000D02*
X174237221Y-53310000D01*
D10*
X166525000Y-53675000D02*
X165125000Y-53675000D01*
X166525000Y-58775000D02*
X170675000Y-58775000D01*
X166525000Y-53625000D02*
X170675000Y-53625000D01*
X166525000Y-58775000D02*
X166525000Y-58630000D01*
X170675000Y-58775000D02*
X170675000Y-58630000D01*
X170675000Y-53625000D02*
X170675000Y-53770000D01*
X166525000Y-53625000D02*
X166525000Y-53675000D01*
D12*
X138900000Y-84810000D02*
X141350000Y-84810000D01*
X140700000Y-81590000D02*
X138900000Y-81590000D01*
X128947936Y-99110000D02*
X133052064Y-99110000D01*
X128947936Y-95690000D02*
X133052064Y-95690000D01*
X148950000Y-87400000D02*
X154150000Y-87400000D01*
X148550000Y-93000000D02*
X155150000Y-93000000D01*
X155150000Y-93000000D02*
X155150000Y-92600000D01*
X114450000Y-81700000D02*
X112750000Y-81700000D01*
X112750000Y-81700000D02*
X112750000Y-84250000D01*
X114450000Y-81700000D02*
X114450000Y-84250000D01*
X123250000Y-81700000D02*
X123250000Y-84250000D01*
X121550000Y-81700000D02*
X121550000Y-84250000D01*
X123250000Y-81700000D02*
X121550000Y-81700000D01*
X135600000Y-81550000D02*
X135600000Y-85450000D01*
X133600000Y-81550000D02*
X133600000Y-85450000D01*
X135600000Y-81550000D02*
X133600000Y-81550000D01*
X172250000Y-88800000D02*
X172250000Y-97200000D01*
X165750000Y-88800000D02*
X165750000Y-97200000D01*
X165750000Y-88800000D02*
X172250000Y-88800000D01*
X167140000Y-82335000D02*
X169600000Y-82335000D01*
X167140000Y-80865000D02*
X167140000Y-82335000D01*
X169600000Y-80865000D02*
X167140000Y-80865000D01*
X167140000Y-84135000D02*
X169600000Y-84135000D01*
X167140000Y-82665000D02*
X167140000Y-84135000D01*
X169600000Y-82665000D02*
X167140000Y-82665000D01*
X169600000Y-79065000D02*
X167140000Y-79065000D01*
X167140000Y-79065000D02*
X167140000Y-80535000D01*
X167140000Y-80535000D02*
X169600000Y-80535000D01*
X133500000Y-47350000D02*
X133500000Y-49050000D01*
X133500000Y-49050000D02*
X136050000Y-49050000D01*
X133500000Y-47350000D02*
X136050000Y-47350000D01*
X134900000Y-42250000D02*
X132350000Y-42250000D01*
X134900000Y-40550000D02*
X132350000Y-40550000D01*
X134900000Y-42250000D02*
X134900000Y-40550000D01*
X110150000Y-67900000D02*
X110150000Y-65350000D01*
X111850000Y-67900000D02*
X111850000Y-65350000D01*
X110150000Y-67900000D02*
X111850000Y-67900000D01*
X156900000Y-42850000D02*
X154350000Y-42850000D01*
X156900000Y-41150000D02*
X154350000Y-41150000D01*
X156900000Y-42850000D02*
X156900000Y-41150000D01*
X124760000Y-45980000D02*
X124760000Y-45050000D01*
X124760000Y-42820000D02*
X124760000Y-43750000D01*
X124760000Y-42820000D02*
X122600000Y-42820000D01*
X124760000Y-45980000D02*
X123300000Y-45980000D01*
X124760000Y-49980000D02*
X123300000Y-49980000D01*
X124760000Y-46820000D02*
X122600000Y-46820000D01*
X124760000Y-46820000D02*
X124760000Y-47750000D01*
X124760000Y-49980000D02*
X124760000Y-49050000D01*
X124760000Y-53980000D02*
X123300000Y-53980000D01*
X124760000Y-50820000D02*
X122600000Y-50820000D01*
X124760000Y-50820000D02*
X124760000Y-51750000D01*
X124760000Y-53980000D02*
X124760000Y-53050000D01*
X124764000Y-57980000D02*
X123304000Y-57980000D01*
X124764000Y-54820000D02*
X122604000Y-54820000D01*
X124764000Y-54820000D02*
X124764000Y-55750000D01*
X124764000Y-57980000D02*
X124764000Y-57050000D01*
X124764000Y-61980000D02*
X124764000Y-61050000D01*
X124764000Y-58820000D02*
X124764000Y-59750000D01*
X124764000Y-58820000D02*
X122604000Y-58820000D01*
X124764000Y-61980000D02*
X123304000Y-61980000D01*
X124760000Y-65980000D02*
X123300000Y-65980000D01*
X124760000Y-62820000D02*
X122600000Y-62820000D01*
X124760000Y-62820000D02*
X124760000Y-63750000D01*
X124760000Y-65980000D02*
X124760000Y-65050000D01*
X156360000Y-48380000D02*
X156360000Y-47450000D01*
X156360000Y-45220000D02*
X156360000Y-46150000D01*
X156360000Y-45220000D02*
X154200000Y-45220000D01*
X156360000Y-48380000D02*
X154900000Y-48380000D01*
X151180000Y-61240000D02*
X151180000Y-62700000D01*
X148020000Y-61240000D02*
X148020000Y-63400000D01*
X148020000Y-61240000D02*
X148950000Y-61240000D01*
X151180000Y-61240000D02*
X150250000Y-61240000D01*
X147380000Y-68240000D02*
X146450000Y-68240000D01*
X144220000Y-68240000D02*
X145150000Y-68240000D01*
X144220000Y-68240000D02*
X144220000Y-70400000D01*
X147380000Y-68240000D02*
X147380000Y-69700000D01*
X104020000Y-59000000D02*
X103900000Y-59000000D01*
X106170000Y-59000000D02*
X105030000Y-59000000D01*
X107300000Y-59000000D02*
X107180000Y-59000000D01*
X107300000Y-63400000D02*
X107300000Y-59000000D01*
X107180000Y-63400000D02*
X107300000Y-63400000D01*
X105030000Y-63400000D02*
X106170000Y-63400000D01*
X103900000Y-63400000D02*
X104020000Y-63400000D01*
X103900000Y-59000000D02*
X103900000Y-63400000D01*
X158100000Y-79200000D02*
X158100000Y-83600000D01*
X158100000Y-83600000D02*
X158220000Y-83600000D01*
X159230000Y-83600000D02*
X160370000Y-83600000D01*
X161380000Y-83600000D02*
X161500000Y-83600000D01*
X161500000Y-83600000D02*
X161500000Y-79200000D01*
X161500000Y-79200000D02*
X161380000Y-79200000D01*
X160370000Y-79200000D02*
X159230000Y-79200000D01*
X158220000Y-79200000D02*
X158100000Y-79200000D01*
D10*
X129175000Y-78200000D02*
X123200000Y-78200000D01*
X127600000Y-72675000D02*
X123200000Y-72675000D01*
D12*
X160148000Y-72826000D02*
X160568000Y-72826000D01*
X160148000Y-65706000D02*
X160148000Y-66126000D01*
X160148000Y-66126000D02*
X158768000Y-66126000D01*
X167268000Y-65706000D02*
X166848000Y-65706000D01*
X167268000Y-72826000D02*
X166848000Y-72826000D01*
X160148000Y-65706000D02*
X160568000Y-65706000D01*
X160148000Y-72826000D02*
X160148000Y-72406000D01*
X167268000Y-72826000D02*
X167268000Y-72406000D01*
X167268000Y-65706000D02*
X167268000Y-66126000D01*
X175000000Y-64200000D02*
X177800000Y-64200000D01*
X177800000Y-64200000D02*
X177800000Y-66200000D01*
X177800000Y-66200000D02*
X175000000Y-66200000D01*
X175000000Y-66200000D02*
X175000000Y-64200000D01*
X127850000Y-42900000D02*
X127850000Y-45450000D01*
X126150000Y-42900000D02*
X126150000Y-45450000D01*
X127850000Y-42900000D02*
X126150000Y-42900000D01*
X127850000Y-46900000D02*
X126150000Y-46900000D01*
X126150000Y-46900000D02*
X126150000Y-49450000D01*
X127850000Y-46900000D02*
X127850000Y-49450000D01*
X127850000Y-50900000D02*
X127850000Y-53450000D01*
X126150000Y-50900000D02*
X126150000Y-53450000D01*
X127850000Y-50900000D02*
X126150000Y-50900000D01*
X119902064Y-45760000D02*
X117097936Y-45760000D01*
X119902064Y-43040000D02*
X117097936Y-43040000D01*
X119902064Y-47040000D02*
X117097936Y-47040000D01*
X119902064Y-49760000D02*
X117097936Y-49760000D01*
X119902064Y-53760000D02*
X117097936Y-53760000D01*
X119902064Y-51040000D02*
X117097936Y-51040000D01*
X119902064Y-55040000D02*
X117097936Y-55040000D01*
X119902064Y-57760000D02*
X117097936Y-57760000D01*
X119902064Y-59040000D02*
X117097936Y-59040000D01*
X119902064Y-61760000D02*
X117097936Y-61760000D01*
X119902064Y-65760000D02*
X117097936Y-65760000D01*
X119902064Y-63040000D02*
X117097936Y-63040000D01*
X143925000Y-71775000D02*
X143925000Y-71882500D01*
X143925000Y-79825000D02*
X143925000Y-79717500D01*
X139275000Y-79825000D02*
X139275000Y-79717500D01*
X138200000Y-71775000D02*
X143925000Y-71775000D01*
X139275000Y-79825000D02*
X143925000Y-79825000D01*
X127850000Y-54900000D02*
X126150000Y-54900000D01*
X126150000Y-54900000D02*
X126150000Y-57450000D01*
X127850000Y-54900000D02*
X127850000Y-57450000D01*
X127850000Y-58900000D02*
X127850000Y-61450000D01*
X126150000Y-58900000D02*
X126150000Y-61450000D01*
X127850000Y-58900000D02*
X126150000Y-58900000D01*
X127850000Y-62900000D02*
X126150000Y-62900000D01*
X126150000Y-62900000D02*
X126150000Y-65450000D01*
X127850000Y-62900000D02*
X127850000Y-65450000D01*
X111850000Y-61500000D02*
X111850000Y-64050000D01*
X110150000Y-61500000D02*
X110150000Y-64050000D01*
X111850000Y-61500000D02*
X110150000Y-61500000D01*
X158800000Y-50800000D02*
X161600000Y-50800000D01*
X161600000Y-50800000D02*
X161600000Y-52800000D01*
X161600000Y-52800000D02*
X158800000Y-52800000D01*
X158800000Y-52800000D02*
X158800000Y-50800000D01*
X161800000Y-55700000D02*
X161800000Y-57100000D01*
X161100000Y-57800000D02*
X160500000Y-57800000D01*
X159800000Y-57100000D02*
X159800000Y-55700000D01*
X160500000Y-55000000D02*
X161100000Y-55000000D01*
X161100000Y-55000000D02*
G75*
G02X161800000Y-55700000I0J-700000D01*
G01*
X159800000Y-55700000D02*
G75*
G02X160500000Y-55000000I700000J0D01*
G01*
X160500000Y-57800000D02*
G75*
G02X159800000Y-57100000I0J700000D01*
G01*
X161800000Y-57100000D02*
G75*
G02X161100000Y-57800000I-700000J0D01*
G01*
X175360000Y-57580000D02*
X173900000Y-57580000D01*
X175360000Y-54420000D02*
X173200000Y-54420000D01*
X175360000Y-54420000D02*
X175360000Y-55350000D01*
X175360000Y-57580000D02*
X175360000Y-56650000D01*
X124750000Y-97200000D02*
G75*
G03X124750000Y-97200000I-950000J0D01*
G01*
X157250000Y-63950000D02*
X153550000Y-63950000D01*
X153550000Y-63950000D02*
X153550000Y-69250000D01*
M02*
